<?xml version="1.0" standalone="no"?>
<!DOCTYPE svg PUBLIC "-//W3C//DTD SVG 20010904//EN"
 "http://www.w3.org/TR/2001/REC-SVG-20010904/DTD/svg10.dtd">
<svg version="1.0" xmlns="http://www.w3.org/2000/svg"
 width="1280.000000pt" height="1280.000000pt" viewBox="0 0 1280.000000 1280.000000"
 preserveAspectRatio="xMidYMid meet">
<g transform="translate(0.000000,1280.000000) scale(0.100000,-0.100000)"
fill="#3765af" stroke="none">
<path d="M3302 12181 c-204 -51 -380 -194 -472 -386 -77 -161 -70 367 -70
-5365 0 -5732 -7 -5204 70 -5365 71 -149 186 -264 335 -335 159 -76 -120 -70
3215 -70 3335 0 3056 -6 3215 70 149 71 264 186 335 335 77 161 70 -367 70
5365 0 5732 7 5204 -70 5365 -71 149 -186 264 -335 335 -159 76 121 70 -3222
69 -2844 0 -3002 -1 -3071 -18z m6170 -349 c54 -27 119 -94 145 -149 17 -36
18 -232 18 -4503 0 -4271 -1 -4467 -18 -4503 -26 -55 -91 -122 -145 -149 l-47
-23 -3045 0 -3045 0 -47 23 c-54 27 -119 94 -145 149 -17 36 -18 232 -18 4503
l0 4465 23 47 c39 78 112 136 197 158 17 5 1391 7 3055 7 l3025 -2 47 -23z
m-2972 -9762 c151 -24 295 -131 364 -271 207 -424 -239 -870 -663 -663 -143
70 -248 213 -272 372 -43 290 182 558 481 571 14 0 54 -4 90 -9z"/>
<path d="M5220 9680 c-25 -5 -77 -26 -117 -45 -216 -107 -327 -401 -309 -825
7 -183 45 -442 82 -562 4 -13 -5 -20 -38 -29 -180 -48 -523 -201 -665 -296
-221 -147 -358 -316 -394 -484 -75 -350 324 -733 996 -955 55 -18 99 -37 98
-41 0 -4 -10 -51 -21 -103 -73 -337 -80 -657 -21 -889 40 -159 139 -313 243
-378 280 -177 764 -16 1253 415 l92 82 68 -63 c253 -231 535 -407 758 -473
106 -31 263 -42 344 -25 238 51 390 277 432 641 21 189 -3 518 -55 742 -8 35
-12 66 -8 69 4 4 52 21 107 39 321 105 610 270 785 450 138 141 196 273 188
430 -4 79 -8 97 -45 172 -23 46 -66 113 -96 149 -118 143 -350 296 -614 405
-107 45 -308 114 -329 114 -12 0 -15 6 -11 23 48 195 77 425 77 612 0 243 -30
407 -101 550 -71 144 -172 235 -303 270 -83 23 -248 16 -352 -14 -213 -61
-462 -207 -697 -410 -48 -42 -104 -89 -122 -105 l-35 -29 -47 41 c-310 272
-583 437 -828 502 -91 24 -248 34 -315 20z m283 -251 c188 -52 464 -223 685
-424 l63 -57 -44 -47 c-76 -81 -240 -283 -321 -394 -48 -66 -86 -109 -99 -111
-12 -3 -85 -12 -162 -21 -145 -17 -302 -42 -438 -70 -43 -9 -80 -15 -82 -13
-7 8 -46 194 -61 298 -25 159 -25 424 0 545 34 173 115 296 205 311 20 3 41 7
46 9 20 8 138 -7 208 -26z m2059 21 c111 -31 190 -178 218 -404 17 -129 7
-372 -20 -535 -18 -111 -39 -211 -45 -219 -1 -1 -85 13 -186 32 -101 19 -249
42 -329 51 -80 9 -155 18 -166 21 -14 2 -65 61 -137 156 -64 84 -163 208 -221
275 l-105 121 57 54 c206 196 512 386 702 437 83 22 176 26 232 11z m-1097
-727 c28 -31 94 -111 147 -177 l97 -121 -149 -3 c-83 -1 -217 -1 -299 0 l-150
3 80 100 c88 111 211 253 219 254 3 0 28 -25 55 -56z m403 -549 c25 -7 94
-108 229 -335 103 -172 263 -471 263 -490 0 -36 -202 -407 -364 -666 l-101
-162 -45 -8 c-25 -5 -239 -8 -477 -8 -420 0 -433 1 -447 20 -86 118 -280 445
-395 666 l-80 154 88 170 c91 176 208 377 319 550 35 55 66 102 69 105 16 17
881 21 941 4z m-1259 -71 c-12 -21 -30 -49 -39 -63 -25 -37 -173 -297 -204
-357 -14 -29 -30 -53 -35 -53 -12 0 -161 397 -161 430 0 11 356 77 428 79 l34
1 -23 -37z m1681 27 c137 -22 345 -63 354 -70 4 -5 -2 -39 -14 -77 -24 -71
-126 -338 -136 -354 -3 -6 -43 57 -88 138 -46 81 -113 197 -149 257 -37 59
-67 110 -67 112 0 6 31 4 100 -6z m-2319 -217 c41 -125 124 -339 181 -468 l45
-101 -25 -54 c-52 -117 -162 -398 -198 -505 l-37 -113 -111 38 c-309 105 -523
225 -677 379 -189 189 -193 327 -15 506 143 144 354 261 661 366 77 27 141 48
142 49 1 0 16 -44 34 -97z m3026 56 c492 -158 850 -440 817 -644 -23 -145
-219 -332 -491 -469 -151 -76 -420 -174 -433 -159 -4 5 -24 58 -45 118 -42
121 -151 387 -190 465 -14 27 -25 58 -25 68 0 11 16 55 36 98 49 108 125 300
169 425 19 57 37 110 40 117 6 17 12 16 122 -19z m-2406 -1352 l49 -78 -32 5
c-18 3 -67 10 -108 16 -145 21 -315 52 -324 60 -11 11 67 245 139 414 l16 38
105 -188 c58 -104 128 -224 155 -267z m1967 301 c62 -159 107 -287 101 -292
-6 -5 -276 -54 -364 -66 -44 -6 -88 -13 -98 -15 -11 -2 -14 1 -10 8 51 82 200
336 243 415 30 56 58 102 61 102 4 0 34 -69 67 -152z m197 -634 c36 -179 48
-325 42 -507 -7 -234 -48 -375 -137 -471 -67 -73 -150 -90 -290 -61 -208 44
-472 203 -734 443 l-55 49 81 94 c97 113 197 241 289 370 l68 95 158 18 c149
17 355 50 488 80 33 7 61 12 63 11 1 -1 13 -56 27 -121z m-2455 72 c112 -20
460 -66 502 -66 3 0 30 -33 59 -72 82 -112 230 -296 318 -396 l80 -90 -92 -80
c-311 -268 -599 -414 -822 -416 -102 -1 -161 25 -210 93 -77 105 -110 250
-109 481 0 170 10 272 45 445 29 142 27 138 57 132 15 -2 92 -16 172 -31z
m1395 -113 c-48 -65 -96 -124 -188 -235 l-89 -107 -73 82 c-40 45 -110 127
-154 182 l-80 100 297 5 c163 3 301 6 306 8 4 1 -4 -15 -19 -35z"/>
<path d="M6347 7820 c-269 -33 -458 -294 -403 -558 78 -374 529 -511 797 -243
145 146 180 359 88 547 -36 74 -131 168 -210 208 -62 31 -89 38 -189 50 -14 1
-51 -1 -83 -4z"/>
</g>
</svg>
